<?xml version="1.0" encoding="UTF-8"?>
<!DOCTYPE svg PUBLIC "-//W3C//DTD SVG 1.1//EN" "http://www.w3.org/Graphics/SVG/1.1/DTD/svg11.dtd">
<!-- Creator: CorelDRAW 2021 (64-Bit) -->
<svg xmlns="http://www.w3.org/2000/svg" xml:space="preserve" width="3.9036in" height="0.87398in" version="1.1" style="shape-rendering:geometricPrecision; text-rendering:geometricPrecision; image-rendering:optimizeQuality; fill-rule:evenodd; clip-rule:evenodd"
viewBox="0 0 3942.12 882.61"
 xmlns:xlink="http://www.w3.org/1999/xlink"
 xmlns:xodm="http://www.corel.com/coreldraw/odm/2003">
 <defs>
  <style type="text/css">
   <![CDATA[
    .fil1 {fill:#469EDE}
    .fil0 {fill:#F7CD45}
   ]]>
  </style>
 </defs>
 <g id="Layer_x0020_1">
  <metadata id="CorelCorpID_0Corel-Layer"/>
  <path class="fil0" d="M-0 667.96l0 132.08c0,0 530.41,170.53 1126.78,21.43 596.38,-149.09 993.97,-328.01 1192.76,-387.65 198.79,-59.64 546.68,-139.16 824.99,-119.28 264.86,18.92 751.2,146.88 797.59,159.21l0 -473.76 -3942.12 0 0 667.96z"/>
  <path class="fil1" d="M-0 0l3942.12 0 0 345.36c-57.7,-23.03 -824.96,-319.49 -1513.24,-80.5 -715.66,248.49 -1172.88,437.35 -1530.71,467.16 -357.83,29.82 -533.14,24.3 -715.66,-19.88 -182.52,-44.18 -182.52,-44.18 -182.52,-44.18l0 -667.96z"/>
 </g>
</svg>
